<svg width="64" height="64" viewBox="0 0 64 64" fill="none" xmlns="http://www.w3.org/2000/svg">
<circle cx="32" cy="32" r="32" fill="#E44B55"/>
<path d="M34.1377 43.5724L35.2101 44.6448H45.9272L44.8548 43.5724H34.1377Z" fill="white"/>
<path d="M43.7837 42.4995L42.7113 41.4271H32.001L33.0734 42.4995H43.7837Z" fill="white"/>
<path d="M41.6372 40.3554L40.5649 39.283H29.8545L30.9269 40.3554H41.6372Z" fill="white"/>
<path d="M39.4999 38.2172L38.4275 37.1448H25.5656V36.0724H37.3551L36.2827 35H25.5656V33.9276H35.2103L34.1379 32.8552H25.5656V31.7828H35.2103L36.2827 30.7104H25.5723V20H18.8548C17.8296 20 17 20.8296 17 21.8548V44.6448H25.5723V40.362H26.6447L27.7171 39.2896H25.5791V38.2172H39.4999Z" fill="white"/>
<path d="M37.3548 29.6448L38.4272 28.5724H27.7236H27.7101L26.6377 29.6448H37.3548Z" fill="white"/>
<path d="M39.4926 27.5L40.565 26.4276H29.8546L28.7822 27.5H39.4926Z" fill="white"/>
<path d="M41.6371 25.3549L42.7095 24.2825H31.9991V24.2892L30.9268 25.3549H41.6371Z" fill="white"/>
<path d="M43.7817 23.217L44.854 22.1447H34.1437H34.1369L33.0713 23.217H43.7817Z" fill="white"/>
<path d="M45.9271 21.0724L46.9995 20H36.2823L35.21 21.0724H45.9271Z" fill="white"/>
</svg>
